{
  "asset": {
    "version": "2.0",
    "generator": "THREE.GLTFExporter"
  },
  "scenes": [
    {
      "nodes": [
        0
      ]
    }
  ],
  "scene": 0,
  "nodes": [
    {
      "children": [
        8
      ],
      "matrix": [
        0.01,
        0,
        0,
        0,
        0,
        0.01,
        0,
        0,
        0,
        0,
        0.01,
        0,
        0,
        0,
        0,
        1
      ]
    },
    {
      "matrix": [
        -1,
        0,
        0,
        0,
        0,
        1,
        1.2246467991473532e-16,
        0,
        0,
        -1.2246467991473532e-16,
        1,
        0,
        0,
        0,
        0,
        1
      ],
      "name": "Sphere006",
      "mesh": 0
    },
    {
      "name": "Sphere",
      "mesh": 1
    },
    {
      "matrix": [
        50,
        0,
        0,
        0,
        0,
        50,
        0,
        0,
        0,
        0,
        50,
        0,
        0,
        0,
        0,
        1
      ],
      "name": "UXO",
      "children": [
        1,
        2
      ]
    },
    {
      "matrix": [
        0.5883484054145521,
        0.39223227027636803,
        -0.7071067811865475,
        0,
        -0.554700196225229,
        0.8320502943378437,
        0,
        0,
        0.588348405414552,
        0.392232270276368,
        0.7071067811865476,
        0,
        0,
        0,
        0,
        1
      ],
      "name": "Directional Light",
      "extensions": {
        "KHR_lights_punctual": {
          "light": 0
        }
      }
    },
    {
      "matrix": [
        1,
        0,
        0,
        0,
        0,
        1,
        0,
        0,
        0,
        0,
        1,
        0,
        0,
        0,
        800,
        1
      ],
      "name": "Camera",
      "camera": 0
    },
    {
      "matrix": [
        0.7071067811865478,
        -2.7755575615628914e-17,
        -0.7071067811865471,
        0,
        -0.4082482904638629,
        0.8164965809277259,
        -0.4082482904638633,
        0,
        0.5773502691896254,
        0.577350269189626,
        0.577350269189626,
        0,
        584.86173691365,
        573.3903649287781,
        579.3266969829992,
        1
      ],
      "camera": 1
    },
    {
      "matrix": [
        1,
        0,
        0,
        0,
        0,
        1,
        0,
        0,
        0,
        0,
        1,
        0,
        0,
        1,
        0,
        1
      ],
      "name": "Default Ambient Light"
    },
    {
      "name": "Scene",
      "children": [
        3,
        4,
        5,
        6,
        7
      ]
    }
  ],
  "bufferViews": [
    {
      "buffer": 0,
      "byteOffset": 0,
      "byteLength": 32160,
      "target": 34962,
      "byteStride": 12
    },
    {
      "buffer": 0,
      "byteOffset": 32160,
      "byteLength": 32160,
      "target": 34962,
      "byteStride": 12
    },
    {
      "buffer": 0,
      "byteOffset": 64320,
      "byteLength": 21440,
      "target": 34962,
      "byteStride": 8
    },
    {
      "buffer": 0,
      "byteOffset": 85760,
      "byteLength": 17028,
      "target": 34963
    },
    {
      "buffer": 0,
      "byteOffset": 102788,
      "byteLength": 16584,
      "target": 34962,
      "byteStride": 12
    },
    {
      "buffer": 0,
      "byteOffset": 119372,
      "byteLength": 16584,
      "target": 34962,
      "byteStride": 12
    },
    {
      "buffer": 0,
      "byteOffset": 135956,
      "byteLength": 11056,
      "target": 34962,
      "byteStride": 8
    },
    {
      "buffer": 0,
      "byteOffset": 147012,
      "byteLength": 13056,
      "target": 34963
    }
  ],
  "buffers": [
    {
      "byteLength": 160068,
      "uri": "data:application/octet-stream;base64,"
    }
  ],
  "accessors": [
    {
      "bufferView": 0,
      "componentType": 5126,
      "count": 2680,
      "max": [
        1.1003527641296387,
        0.9251407384872437,
        1.0984504222869873
      ],
      "min": [
        -1.1000109910964966,
        -0.9251407384872437,
        -1.1001533269882202
      ],
      "type": "VEC3"
    },
    {
      "bufferView": 1,
      "componentType": 5126,
      "count": 2680,
      "max": [
        0.9990618228912354,
        0.9999991655349731,
        0.9985763430595398
      ],
      "min": [
        -0.9986022710800171,
        -0.9999991655349731,
        -0.9982506036758423
      ],
      "type": "VEC3"
    },
    {
      "bufferView": 2,
      "componentType": 5126,
      "count": 2680,
      "max": [
        0.500019371509552,
        0.5
      ],
      "min": [
        0.24980230629444122,
        0.125
      ],
      "type": "VEC2"
    },
    {
      "bufferView": 3,
      "componentType": 5123,
      "count": 8514,
      "max": [
        2679
      ],
      "min": [
        0
      ],
      "type": "SCALAR"
    },
    {
      "bufferView": 4,
      "componentType": 5126,
      "count": 1382,
      "max": [
        1.0002117156982422,
        0.9908211827278137,
        1.0002113580703735
      ],
      "min": [
        -1.0002110004425049,
        -0.9908211827278137,
        -1.0002107620239258
      ],
      "type": "VEC3"
    },
    {
      "bufferView": 5,
      "componentType": 5126,
      "count": 1382,
      "max": [
        0.9988085627555847,
        1,
        0.9988085627555847
      ],
      "min": [
        -0.9988085627555847,
        -1,
        -0.9988085627555847
      ],
      "type": "VEC3"
    },
    {
      "bufferView": 6,
      "componentType": 5126,
      "count": 1382,
      "max": [
        1,
        1
      ],
      "min": [
        0,
        0
      ],
      "type": "VEC2"
    },
    {
      "bufferView": 7,
      "componentType": 5123,
      "count": 6528,
      "max": [
        1381
      ],
      "min": [
        0
      ],
      "type": "SCALAR"
    }
  ],
  "materials": [
    {
      "pbrMetallicRoughness": {
        "baseColorFactor": [
          0.04817182422013895,
          0.05286064701616472,
          0.0018211619011764706,
          1
        ],
        "metallicFactor": 0,
        "roughnessFactor": 0.9470565963312575
      },
      "doubleSided": false
    },
    {
      "pbrMetallicRoughness": {
        "baseColorFactor": [
          0.12743768042608497,
          0.1412632911304446,
          0.03954623527052923,
          1
        ],
        "metallicFactor": 0,
        "roughnessFactor": 0.995
      },
      "doubleSided": false
    }
  ],
  "meshes": [
    {
      "primitives": [
        {
          "mode": 4,
          "attributes": {
            "POSITION": 0,
            "NORMAL": 1,
            "TEXCOORD_0": 2
          },
          "extras": {
            "parameters": {
              "width": 2.2003637552261353,
              "height": 1.8502814769744873,
              "depth": 2.1986037492752075,
              "subdivisions": 0
            },
            "type": "NonParametricGeometry"
          },
          "indices": 3,
          "material": 0
        }
      ]
    },
    {
      "primitives": [
        {
          "mode": 4,
          "attributes": {
            "POSITION": 4,
            "NORMAL": 5,
            "TEXCOORD_0": 6
          },
          "extras": {
            "parameters": {
              "width": 2.000422716140747,
              "height": 1.9816423654556274,
              "depth": 2.0004221200942993,
              "subdivisions": 0
            },
            "type": "NonParametricGeometry"
          },
          "indices": 7,
          "material": 1
        }
      ]
    }
  ],
  "extensions": {
    "KHR_lights_punctual": {
      "lights": [
        {
          "name": "Directional Light",
          "color": [
            1,
            1,
            1
          ],
          "intensity": 0.7,
          "type": "directional"
        }
      ]
    }
  },
  "cameras": [
    {
      "type": "orthographic",
      "orthographic": {
        "xmag": 17.28,
        "ymag": 9.21,
        "zfar": 100000,
        "znear": 0
      },
      "name": "Camera"
    },
    {
      "type": "orthographic",
      "orthographic": {
        "xmag": 2.795329828572848,
        "ymag": 1.4898719746039313,
        "zfar": 100000,
        "znear": 0
      }
    }
  ],
  "extensionsUsed": [
    "KHR_lights_punctual"
  ]
}