{
  "asset": {
    "version": "2.0",
    "generator": "THREE.GLTFExporter r167"
  },
  "scenes": [
    {
      "name": "Scene",
      "nodes": [
        1
      ]
    }
  ],
  "scene": 0,
  "nodes": [
    {
      "name": "Mesh2001",
      "extras": {
        "name": "Mesh2.001"
      },
      "mesh": 0
    },
    {
      "name": "Defaut_02.glb",
      "children": [
        0
      ]
    }
  ],
  "bufferViews": [
    {
      "buffer": 0,
      "byteOffset": 0,
      "byteLength": 103668,
      "target": 34962,
      "byteStride": 12
    },
    {
      "buffer": 0,
      "byteOffset": 103668,
      "byteLength": 103668,
      "target": 34962,
      "byteStride": 12
    },
    {
      "buffer": 0,
      "byteOffset": 207336,
      "byteLength": 69112,
      "target": 34962,
      "byteStride": 8
    },
    {
      "buffer": 0,
      "byteOffset": 276448,
      "byteLength": 99840,
      "target": 34963
    }
  ],
  "buffers": [
    {
      "byteLength": 376288,
      "uri": "data:application/octet-stream;base64,"
    }
  ],
  "accessors": [
    {
      "bufferView": 0,
      "componentType": 5126,
      "count": 8639,
      "max": [
        52.50000762939453,
        179.84832763671875,
        52.49967575073242
      ],
      "min": [
        -52.49999237060547,
        -307.15167236328125,
        -52.50032424926758
      ],
      "type": "VEC3"
    },
    {
      "bufferView": 1,
      "componentType": 5126,
      "count": 8639,
      "max": [
        0.9999995231628418,
        1,
        0.9999995231628418
      ],
      "min": [
        -0.9999995231628418,
        -1,
        -0.9999995231628418
      ],
      "type": "VEC3"
    },
    {
      "bufferView": 2,
      "componentType": 5126,
      "count": 8639,
      "max": [
        0.9991341233253479,
        1
      ],
      "min": [
        0,
        0
      ],
      "type": "VEC2"
    },
    {
      "bufferView": 3,
      "componentType": 5123,
      "count": 49920,
      "max": [
        8638
      ],
      "min": [
        0
      ],
      "type": "SCALAR"
    }
  ],
  "materials": [
    {
      "pbrMetallicRoughness": {
        "metallicFactor": 1,
        "roughnessFactor": 1,
        "metallicRoughnessTexture": {
          "index": 0,
          "channel": 0
        },
        "baseColorTexture": {
          "index": 1,
          "texCoord": 0
        }
      },
      "normalTexture": {
        "index": 2,
        "texCoord": 0
      },
      "doubleSided": true,
      "name": "Op3_2_Defaut.001"
    }
  ],
  "textures": [
    {
      "sampler": 0,
      "source": 0,
      "name": "1_op3_2_Metalness.1001-1_op3_2_Roughness.1001"
    },
    {
      "sampler": 1,
      "source": 1,
      "name": "1_op3_2_BaseColor.1001"
    },
    {
      "sampler": 2,
      "source": 2,
      "name": "1_op3_2_Normal.1001"
    }
  ],
  "samplers": [
    {
      "magFilter": 9729,
      "minFilter": 9987,
      "wrapS": 10497,
      "wrapT": 10497
    },
    {
      "magFilter": 9729,
      "minFilter": 9987,
      "wrapS": 10497,
      "wrapT": 10497
    },
    {
      "magFilter": 9729,
      "minFilter": 9987,
      "wrapS": 10497,
      "wrapT": 10497
    }
  ],
  "images": [
    {
      "mimeType": "image/png",
      "uri": "data:image/png;base64,"
    },
    {
      "mimeType": "image/png",
      "uri": "data:image/png;base64,"
    },
    {
      "mimeType": "image/png",
      "uri": "data:image/png;base64,"
    }
  ],
  "meshes": [
    {
      "primitives": [
        {
          "mode": 4,
          "attributes": {
            "POSITION": 0,
            "NORMAL": 1,
            "TEXCOORD_0": 2
          },
          "indices": 3,
          "material": 0
        }
      ]
    }
  ]
}