{
  "asset": {
    "version": "2.0",
    "generator": "THREE.GLTFExporter r166"
  },
  "scenes": [
    {
      "name": "Scene",
      "nodes": [
        1
      ]
    }
  ],
  "scene": 0,
  "nodes": [
    {
      "matrix": [
        1.0237386226654053,
        0,
        0,
        0,
        0,
        -1.375483506809046e-7,
        1.023738760213756,
        0,
        0,
        -1.023738760213756,
        -1.375483506809046e-7,
        0,
        0,
        0,
        0,
        1
      ],
      "name": "op1001",
      "extras": {
        "name": "op1.001"
      },
      "mesh": 0
    },
    {
      "name": "Op1_defaut.glb",
      "children": [
        0
      ]
    }
  ],
  "bufferViews": [
    {
      "buffer": 0,
      "byteOffset": 0,
      "byteLength": 108264,
      "target": 34962,
      "byteStride": 12
    },
    {
      "buffer": 0,
      "byteOffset": 108264,
      "byteLength": 108264,
      "target": 34962,
      "byteStride": 12
    },
    {
      "buffer": 0,
      "byteOffset": 216528,
      "byteLength": 72176,
      "target": 34962,
      "byteStride": 8
    },
    {
      "buffer": 0,
      "byteOffset": 288704,
      "byteLength": 99840,
      "target": 34963
    }
  ],
  "buffers": [
    {
      "byteLength": 388544,
      "uri": "data:application/octet-stream;base64,"
    }
  ],
  "accessors": [
    {
      "bufferView": 0,
      "componentType": 5126,
      "count": 9022,
      "max": [
        31.25591468811035,
        34.4714241027832,
        34.7277946472168
      ],
      "min": [
        -31.25589942932129,
        -34.372520446777344,
        -34.73638916015625
      ],
      "type": "VEC3"
    },
    {
      "bufferView": 1,
      "componentType": 5126,
      "count": 9022,
      "max": [
        1,
        1,
        1
      ],
      "min": [
        -1,
        -0.9999998807907104,
        -0.9999998807907104
      ],
      "type": "VEC3"
    },
    {
      "bufferView": 2,
      "componentType": 5126,
      "count": 9022,
      "max": [
        0.9860095381736755,
        0.9883349537849426
      ],
      "min": [
        0.011079497635364532,
        0.006686806678771973
      ],
      "type": "VEC2"
    },
    {
      "bufferView": 3,
      "componentType": 5123,
      "count": 49920,
      "max": [
        9021
      ],
      "min": [
        0
      ],
      "type": "SCALAR"
    }
  ],
  "materials": [
    {
      "pbrMetallicRoughness": {
        "metallicFactor": 1,
        "roughnessFactor": 1,
        "metallicRoughnessTexture": {
          "index": 0,
          "channel": 0
        },
        "baseColorTexture": {
          "index": 1,
          "texCoord": 0
        }
      },
      "normalTexture": {
        "index": 2,
        "texCoord": 0
      },
      "doubleSided": true,
      "name": "Material"
    }
  ],
  "textures": [
    {
      "sampler": 0,
      "source": 0,
      "name": "1_standardSurface1_Metalness.1001.png-1_standardSurface1_Roughness.1001.png"
    },
    {
      "sampler": 1,
      "source": 1,
      "name": "1_standardSurface1_BaseColor.1001"
    },
    {
      "sampler": 2,
      "source": 2,
      "name": "1_standardSurface1_Normal.1001"
    }
  ],
  "samplers": [
    {
      "magFilter": 9729,
      "minFilter": 9987,
      "wrapS": 10497,
      "wrapT": 10497
    },
    {
      "magFilter": 9729,
      "minFilter": 9987,
      "wrapS": 10497,
      "wrapT": 10497
    },
    {
      "magFilter": 9729,
      "minFilter": 9987,
      "wrapS": 10497,
      "wrapT": 10497
    }
  ],
  "images": [
    {
      "mimeType": "image/png",
      "uri": "data:image/png;base64,"
    },
    {
      "mimeType": "image/png",
      "uri": "data:image/png;base64,"
    },
    {
      "mimeType": "image/png",
      "uri": "data:image/png;base64,"
    }
  ],
  "meshes": [
    {
      "primitives": [
        {
          "mode": 4,
          "attributes": {
            "POSITION": 0,
            "NORMAL": 1,
            "TEXCOORD_0": 2
          },
          "indices": 3,
          "material": 0
        }
      ]
    }
  ]
}