{
  "asset": {
    "version": "2.0",
    "generator": "THREE.GLTFExporter r166"
  },
  "scenes": [
    {
      "name": "Scene",
      "nodes": [
        1
      ]
    }
  ],
  "scene": 0,
  "nodes": [
    {
      "name": "pSphere1001",
      "extras": {
        "name": "pSphere1.001"
      },
      "mesh": 0
    },
    {
      "name": "Op2_2_Defaut.glb",
      "children": [
        0
      ]
    }
  ],
  "bufferViews": [
    {
      "buffer": 0,
      "byteOffset": 0,
      "byteLength": 24876,
      "target": 34962,
      "byteStride": 12
    },
    {
      "buffer": 0,
      "byteOffset": 24876,
      "byteLength": 24876,
      "target": 34962,
      "byteStride": 12
    },
    {
      "buffer": 0,
      "byteOffset": 49752,
      "byteLength": 16584,
      "target": 34962,
      "byteStride": 8
    },
    {
      "buffer": 0,
      "byteOffset": 66336,
      "byteLength": 22728,
      "target": 34963
    }
  ],
  "buffers": [
    {
      "byteLength": 89064,
      "uri": "data:application/octet-stream;base64,"
    }
  ],
  "accessors": [
    {
      "bufferView": 0,
      "componentType": 5126,
      "count": 2073,
      "max": [
        20.00728416442871,
        44.298213958740234,
        20.000003814697266
      ],
      "min": [
        -19.992713928222656,
        -33.7017822265625,
        -19.999998092651367
      ],
      "type": "VEC3"
    },
    {
      "bufferView": 1,
      "componentType": 5126,
      "count": 2073,
      "max": [
        0.9999998807907104,
        1,
        0.9999998807907104
      ],
      "min": [
        -0.9999998807907104,
        -1,
        -0.9999998807907104
      ],
      "type": "VEC3"
    },
    {
      "bufferView": 2,
      "componentType": 5126,
      "count": 2073,
      "max": [
        0.9804375767707825,
        0.9691405892372131
      ],
      "min": [
        0.03236281871795654,
        0.030759096145629883
      ],
      "type": "VEC2"
    },
    {
      "bufferView": 3,
      "componentType": 5123,
      "count": 11364,
      "max": [
        2072
      ],
      "min": [
        0
      ],
      "type": "SCALAR"
    }
  ],
  "materials": [
    {
      "pbrMetallicRoughness": {
        "metallicFactor": 1,
        "roughnessFactor": 1,
        "metallicRoughnessTexture": {
          "index": 0,
          "channel": 0
        },
        "baseColorTexture": {
          "index": 1,
          "texCoord": 0
        }
      },
      "normalTexture": {
        "index": 2,
        "texCoord": 0
      },
      "doubleSided": true,
      "name": "Op2_2_defaut"
    }
  ],
  "textures": [
    {
      "sampler": 0,
      "source": 0,
      "name": "1_op2_2_Metalness.1001-1_op2_2_Roughness.1001"
    },
    {
      "sampler": 1,
      "source": 1,
      "name": "1_op2_2_BaseColor.1001"
    },
    {
      "sampler": 2,
      "source": 2,
      "name": "1_op2_2_Normal.1001"
    }
  ],
  "samplers": [
    {
      "magFilter": 9729,
      "minFilter": 9987,
      "wrapS": 10497,
      "wrapT": 10497
    },
    {
      "magFilter": 9729,
      "minFilter": 9987,
      "wrapS": 10497,
      "wrapT": 10497
    },
    {
      "magFilter": 9729,
      "minFilter": 9987,
      "wrapS": 10497,
      "wrapT": 10497
    }
  ],
  "images": [
    {
      "mimeType": "image/png",
      "uri": "data:image/png;base64,"
    },
    {
      "mimeType": "image/png",
      "uri": "data:image/png;base64,"
    },
    {
      "mimeType": "image/png",
      "uri": "data:image/png;base64,"
    }
  ],
  "meshes": [
    {
      "primitives": [
        {
          "mode": 4,
          "attributes": {
            "POSITION": 0,
            "NORMAL": 1,
            "TEXCOORD_0": 2
          },
          "indices": 3,
          "material": 0
        }
      ]
    }
  ]
}