{
  "asset": {
    "version": "2.0",
    "generator": "THREE.GLTFExporter r166"
  },
  "scenes": [
    {
      "name": "Scene",
      "nodes": [
        1
      ]
    }
  ],
  "scene": 0,
  "nodes": [
    {
      "matrix": [
        0.9281741976737976,
        0,
        0,
        0,
        0,
        -1.247084238183808e-7,
        0.9281743223822214,
        0,
        0,
        -0.9982303530083998,
        -1.3412107071852333e-7,
        0,
        0,
        0,
        0,
        1
      ],
      "name": "Mesh",
      "extras": {
        "name": "Mesh"
      },
      "mesh": 0
    },
    {
      "name": "Op3_1_Defaut.glb",
      "children": [
        0
      ]
    }
  ],
  "bufferViews": [
    {
      "buffer": 0,
      "byteOffset": 0,
      "byteLength": 107448,
      "target": 34962,
      "byteStride": 12
    },
    {
      "buffer": 0,
      "byteOffset": 107448,
      "byteLength": 107448,
      "target": 34962,
      "byteStride": 12
    },
    {
      "buffer": 0,
      "byteOffset": 214896,
      "byteLength": 71632,
      "target": 34962,
      "byteStride": 8
    },
    {
      "buffer": 0,
      "byteOffset": 286528,
      "byteLength": 102912,
      "target": 34963
    }
  ],
  "buffers": [
    {
      "byteLength": 389440,
      "uri": "data:application/octet-stream;base64,"
    }
  ],
  "accessors": [
    {
      "bufferView": 0,
      "componentType": 5126,
      "count": 8954,
      "max": [
        59.256126403808594,
        59.256439208984375,
        505.84259033203125
      ],
      "min": [
        -59.25611114501953,
        -59.25579833984375,
        -361.6927490234375
      ],
      "type": "VEC3"
    },
    {
      "bufferView": 1,
      "componentType": 5126,
      "count": 8954,
      "max": [
        1,
        1,
        1
      ],
      "min": [
        -1,
        -1,
        -1
      ],
      "type": "VEC3"
    },
    {
      "bufferView": 2,
      "componentType": 5126,
      "count": 8954,
      "max": [
        0.986940324306488,
        0.9785135388374329
      ],
      "min": [
        0.016597270965576172,
        0.12216073274612427
      ],
      "type": "VEC2"
    },
    {
      "bufferView": 3,
      "componentType": 5123,
      "count": 51456,
      "max": [
        8953
      ],
      "min": [
        0
      ],
      "type": "SCALAR"
    }
  ],
  "materials": [
    {
      "pbrMetallicRoughness": {
        "metallicFactor": 1,
        "roughnessFactor": 1,
        "metallicRoughnessTexture": {
          "index": 0,
          "channel": 0
        },
        "baseColorTexture": {
          "index": 1,
          "texCoord": 0
        }
      },
      "normalTexture": {
        "index": 2,
        "texCoord": 0
      },
      "doubleSided": true,
      "name": "Op3_1_Defaut"
    }
  ],
  "textures": [
    {
      "sampler": 0,
      "source": 0,
      "name": "1_op3_1_Metalness.1001-1_op3_1_Roughness.1001"
    },
    {
      "sampler": 1,
      "source": 1,
      "name": "1_op3_1_BaseColor.1001"
    },
    {
      "sampler": 2,
      "source": 2,
      "name": "1_op3_1_Normal.1001"
    }
  ],
  "samplers": [
    {
      "magFilter": 9729,
      "minFilter": 9987,
      "wrapS": 10497,
      "wrapT": 10497
    },
    {
      "magFilter": 9729,
      "minFilter": 9987,
      "wrapS": 10497,
      "wrapT": 10497
    },
    {
      "magFilter": 9729,
      "minFilter": 9987,
      "wrapS": 10497,
      "wrapT": 10497
    }
  ],
  "images": [
    {
      "mimeType": "image/png",
      "uri": "data:image/png;base64,"
    },
    {
      "mimeType": "image/png",
      "uri": "data:image/png;base64,"
    },
    {
      "mimeType": "image/png",
      "uri": "data:image/png;base64,"
    }
  ],
  "meshes": [
    {
      "primitives": [
        {
          "mode": 4,
          "attributes": {
            "POSITION": 0,
            "NORMAL": 1,
            "TEXCOORD_0": 2
          },
          "indices": 3,
          "material": 0
        }
      ]
    }
  ]
}